<?xml version="1.0" standalone="no"?>
<!DOCTYPE svg PUBLIC "-//W3C//DTD SVG 20010904//EN"
 "http://www.w3.org/TR/2001/REC-SVG-20010904/DTD/svg10.dtd">
<svg version="1.0" xmlns="http://www.w3.org/2000/svg"
 width="1200.000000pt" height="1216.000000pt" viewBox="0 0 1200.000000 1216.000000"
 preserveAspectRatio="xMidYMid meet">

<g transform="translate(0.000000,1216.000000) scale(0.100000,-0.100000)"
fill="#000000" stroke="none">
<path d="M5951 12014 c-98 -45 -236 -202 -348 -396 -25 -43 -52 -78 -60 -78
-8 0 -40 20 -71 44 -294 225 -618 345 -831 307 -197 -35 -363 -185 -452 -406
-26 -66 -50 -149 -73 -256 -5 -22 -24 -33 -133 -79 -462 -194 -966 -509 -1373
-856 -243 -207 -570 -552 -759 -801 l-78 -102 -7 77 c-16 193 -93 336 -202
378 -80 30 -189 0 -255 -72 -190 -206 -376 -402 -541 -570 -164 -167 -203
-212 -228 -265 -57 -121 -30 -252 67 -326 72 -53 190 -65 265 -27 15 8 32 14
38 14 6 0 10 -39 10 -107 l-1 -108 -82 -65 c-45 -36 -131 -99 -190 -140 l-108
-75 5 -150 c22 -578 225 -1045 548 -1262 l74 -49 -90 -12 c-368 -47 -670 -259
-834 -587 -148 -296 -147 -658 2 -953 137 -270 395 -479 683 -553 143 -36 340
-47 425 -23 9 3 -22 -35 -70 -84 -266 -270 -344 -662 -207 -1042 207 -574 799
-1283 1470 -1760 452 -321 1063 -620 1633 -799 l127 -40 44 -88 c148 -299 340
-443 594 -443 193 0 389 81 516 214 l34 35 44 -72 c50 -82 146 -184 214 -227
143 -93 355 -103 507 -26 109 55 211 164 274 291 l30 60 82 -82 c98 -98 200
-152 336 -179 330 -65 597 98 755 462 l33 77 169 57 c428 144 877 354 1258
589 340 210 618 434 920 742 422 431 736 915 843 1299 23 84 26 114 27 250 0
116 -5 174 -18 230 -43 177 -137 343 -262 466 l-72 70 139 -4 c155 -5 249 6
373 45 315 99 574 350 683 663 138 397 39 821 -262 1115 -183 178 -407 281
-658 302 l-78 6 73 48 c140 92 290 274 373 454 104 224 169 519 180 815 l5
145 -133 92 c-73 51 -155 112 -182 135 l-48 43 7 113 c7 99 10 112 24 106 60
-26 124 -35 174 -24 140 30 219 139 203 280 -13 110 -38 142 -344 454 -156
159 -325 336 -375 393 -96 109 -155 149 -234 160 -90 12 -176 -42 -230 -144
-43 -80 -55 -131 -62 -255 l-6 -107 -79 106 c-513 687 -1267 1291 -2046 1641
-85 38 -172 76 -193 83 -43 15 -51 26 -61 84 -15 83 -60 213 -104 300 -89 173
-244 296 -411 326 -217 38 -543 -83 -850 -317 -24 -19 -47 -34 -51 -34 -4 0
-30 46 -58 103 -124 248 -261 396 -367 397 -16 0 -54 -12 -84 -26z m128 -78
c56 -29 143 -142 205 -265 21 -41 26 -62 21 -87 l-6 -34 -294 0 c-288 0 -294
0 -300 21 -4 11 -4 23 -1 27 4 3 46 6 94 6 79 1 93 4 131 29 49 32 81 80 81
120 0 40 -40 77 -85 77 -46 0 -47 25 -2 67 59 56 102 66 156 39z m-1173 -146
c144 -36 435 -199 442 -247 4 -24 16 -21 -208 -58 -235 -39 -527 -110 -781
-189 l-47 -14 -17 45 c-32 84 -31 123 5 197 40 80 60 101 60 62 0 -58 55 -120
129 -145 80 -26 197 -2 256 53 47 45 49 100 6 148 -24 27 -36 33 -70 32 -51
-2 -81 -26 -81 -66 0 -20 -6 -31 -22 -37 -66 -24 -112 54 -74 127 53 101 216
139 402 92z m2449 5 c97 -26 155 -84 155 -155 0 -31 -37 -80 -60 -80 -26 0
-50 22 -50 45 0 60 -89 87 -143 45 -31 -24 -50 -82 -37 -113 32 -84 203 -135
308 -92 66 28 112 86 112 142 1 27 1 27 16 8 9 -11 29 -47 46 -79 35 -68 35
-121 2 -193 l-19 -41 -95 29 c-250 77 -468 128 -764 179 -93 16 -171 31 -173
33 -2 3 1 15 6 29 6 15 41 45 88 75 241 155 443 210 608 168z m-860 -350
c1150 -112 2161 -577 3039 -1398 239 -224 435 -451 689 -799 273 -374 428
-561 641 -773 150 -150 252 -235 408 -343 l97 -67 1 -90 c1 -213 -59 -518
-142 -723 -116 -284 -299 -483 -527 -571 -515 -199 -1046 96 -1616 899 -397
558 -748 940 -1149 1249 -1005 776 -2207 912 -3283 372 -593 -297 -1149 -800
-1641 -1485 -264 -368 -363 -490 -538 -663 -201 -198 -421 -337 -629 -399 -79
-24 -108 -27 -230 -27 -169 0 -252 19 -394 90 -168 84 -325 257 -420 464 -103
224 -171 539 -171 787 0 97 0 98 28 115 16 9 83 56 148 105 293 220 544 487
867 922 72 96 168 226 214 288 144 194 281 350 483 552 569 570 1217 981 1950
1237 460 161 864 239 1440 277 117 8 583 -4 735 -19z m4053 -1850 c30 -38 68
-84 84 -101 l29 -31 -36 -27 c-19 -15 -60 -40 -90 -56 l-54 -28 55 -89 c118
-187 273 -381 423 -528 l71 -69 0 -121 -1 -120 -132 135 c-211 216 -406 453
-518 630 -34 54 -34 56 -37 185 -5 175 12 248 75 333 l25 33 26 -38 c14 -21
50 -69 80 -108z m-8886 5 c17 -54 20 -87 19 -193 -1 -87 -6 -140 -16 -163 -36
-87 -260 -367 -498 -623 l-162 -174 -9 108 -8 108 115 116 c63 64 147 157 188
206 65 81 249 349 249 364 0 3 -29 21 -64 39 -35 18 -72 42 -81 52 -21 23 -30
5 100 175 l90 117 28 -33 c15 -19 37 -63 49 -99z m-416 -106 c29 -57 86 -123
139 -160 l30 -21 -37 -55 c-111 -168 -470 -554 -550 -591 -109 -51 -228 24
-228 145 0 91 24 135 132 238 55 52 185 186 290 298 106 111 193 202 194 202
1 0 14 -25 30 -56z m9714 -110 c85 -91 213 -222 284 -292 146 -143 170 -181
170 -279 1 -47 -4 -68 -20 -89 -39 -52 -71 -69 -133 -69 -75 0 -106 21 -270
186 -151 150 -248 263 -331 384 -55 82 -59 91 -43 100 43 24 140 133 159 177
10 27 21 48 24 48 3 0 75 -75 160 -166z m-4543 27 c451 -69 921 -260 1305
-531 l72 -50 -1794 0 -1795 0 55 39 c439 314 976 515 1510 565 119 11 519 -3
647 -23z m1561 -729 l72 -57 -1025 -3 c-564 -1 -1487 -1 -2051 0 l-1027 3 72
58 73 57 1906 0 1907 0 73 -58z m-3725 -1192 l323 0 -33 103 c-54 166 -62 197
-53 197 6 0 114 -24 242 -53 l233 -53 233 4 232 4 0 59 0 59 -125 0 -125 0 0
270 0 270 113 0 113 0 38 77 38 78 39 -78 39 -77 115 0 115 0 0 -270 0 -270
-125 0 -125 0 0 -60 0 -60 300 0 300 0 0 60 0 60 -125 0 -125 0 0 270 0 270
115 0 115 0 39 77 39 78 38 -78 38 -77 113 0 113 0 0 -270 0 -270 -125 0 -125
0 0 -60 0 -60 295 0 295 0 0 60 0 60 -120 0 -120 0 0 270 0 270 110 0 110 0
38 77 39 77 39 -75 39 -74 113 -3 112 -3 0 -269 0 -270 -120 0 -120 0 0 -60 0
-59 148 -3 147 -3 0 -98 0 -97 412 0 413 0 2 549 3 550 43 -35 42 -36 0 -2301
-1 -2302 -82 -55 c-45 -30 -122 -84 -172 -121 -49 -36 -106 -77 -126 -90 -68
-45 -161 -111 -178 -126 -9 -8 -79 -59 -156 -112 -139 -97 -307 -216 -355
-252 -62 -46 -307 -207 -688 -453 l-413 -266 -437 282 c-532 343 -864 562
-902 596 -8 7 -67 50 -131 95 -64 45 -127 90 -140 99 -13 10 -44 32 -69 48
-25 17 -68 47 -96 68 -28 20 -89 64 -135 96 -46 33 -86 62 -89 66 -3 3 -47 35
-97 70 l-93 63 0 2287 0 2287 58 54 57 54 3 -557 2 -558 323 0z m259 -4200
c441 -283 838 -539 882 -568 l81 -53 -50 6 c-27 4 -120 24 -205 46 -691 173
-1372 537 -2000 1068 -133 112 -459 433 -629 619 -56 61 -131 132 -165 157
-139 99 -286 146 -466 148 l-115 2 96 95 c109 108 163 183 225 314 236 501 41
1105 -445 1379 l-55 31 80 13 c410 63 803 375 1234 978 255 358 415 556 610
758 l115 120 3 -2299 2 -2299 802 -515z m4124 4740 c110 -133 232 -294 407
-538 291 -403 581 -684 855 -825 148 -76 288 -119 422 -129 l35 -3 -61 -33
c-82 -45 -210 -148 -271 -219 -151 -177 -236 -368 -263 -598 -40 -337 106
-704 370 -924 l55 -46 -130 -1 c-276 -3 -438 -80 -651 -311 -170 -184 -462
-474 -584 -579 -554 -479 -1151 -824 -1778 -1028 -204 -67 -534 -144 -507
-119 6 5 395 256 865 558 470 301 863 555 873 563 16 14 17 137 17 2311 l1
2296 121 -125 c66 -69 167 -181 224 -250z m-3586 -38 c-45 -125 -85 -232 -88
-238 -5 -8 -51 0 -154 25 -81 20 -150 39 -153 42 -3 4 101 120 232 259 l238
254 3 -58 c3 -51 -6 -84 -78 -284z m-3723 -1447 c189 -18 408 -123 554 -267
209 -206 311 -469 296 -762 -22 -426 -317 -784 -737 -897 -111 -30 -355 -33
-464 -6 -169 42 -319 124 -443 240 -105 100 -163 177 -218 291 -77 161 -90
224 -89 431 0 167 2 186 28 270 36 119 113 263 186 352 169 205 432 339 695
356 51 4 83 2 192 -8z m9586 5 c340 -33 635 -233 785 -535 75 -152 102 -267
102 -441 0 -279 -94 -501 -294 -699 -136 -134 -261 -204 -454 -257 -102 -28
-342 -31 -444 -5 -185 46 -347 136 -474 262 -131 130 -218 279 -265 455 -20
73 -23 108 -23 250 0 150 3 173 28 255 81 271 256 486 497 610 103 53 236 93
344 104 44 5 82 9 85 10 3 0 53 -4 113 -9z m-8748 -1950 c143 -45 200 -83 335
-223 326 -338 485 -497 602 -599 738 -643 1600 -1076 2383 -1198 77 -12 149
-23 160 -26 11 -2 65 -34 120 -70 l100 -66 -95 7 c-691 47 -1459 334 -2160
806 -325 219 -693 534 -980 840 -284 301 -331 346 -412 384 -192 91 -413 86
-606 -15 -194 -101 -317 -248 -384 -460 -20 -65 -23 -95 -23 -225 0 -147 1
-152 38 -259 73 -213 210 -457 385 -686 248 -326 472 -563 755 -798 705 -587
1737 -1037 2722 -1187 549 -83 1158 -86 1700 -10 918 130 1893 521 2590 1040
272 201 624 533 815 766 235 287 409 570 506 819 111 289 73 586 -104 806 -98
121 -267 226 -418 260 -159 35 -363 1 -487 -80 -73 -49 -107 -81 -260 -251
-171 -192 -352 -365 -596 -574 -210 -181 -321 -265 -536 -406 -685 -451 -1401
-713 -2105 -770 l-75 -6 100 66 c55 36 109 67 120 70 11 2 81 13 155 25 773
122 1594 526 2330 1149 121 102 388 364 655 642 141 147 195 183 340 229 108
34 294 39 405 11 314 -79 556 -318 636 -629 34 -130 36 -317 4 -437 -114 -441
-522 -1024 -1049 -1502 -432 -392 -968 -717 -1599 -972 -1089 -440 -2255 -550
-3402 -321 -735 147 -1497 459 -2110 865 -271 179 -466 338 -709 578 -425 420
-737 873 -866 1261 -147 438 32 890 430 1087 150 74 221 90 385 85 104 -3 151
-9 205 -26z m1285 -1704 c63 -36 114 -68 113 -73 -1 -4 -76 -143 -168 -308
-173 -313 -211 -402 -199 -468 8 -51 56 -104 119 -133 61 -29 104 -30 153 -5
73 38 94 69 302 446 79 143 146 264 150 268 8 9 239 -112 240 -125 0 -4 -75
-144 -167 -310 -145 -262 -177 -312 -233 -369 -76 -78 -145 -109 -238 -109
-201 0 -454 154 -539 329 -24 48 -28 68 -27 141 0 61 6 99 20 133 23 55 346
646 354 647 3 0 57 -29 120 -64z m5465 -55 c139 -65 246 -223 275 -407 28
-172 -64 -368 -228 -487 -48 -35 -410 -247 -421 -247 -14 0 -503 862 -495 870
19 18 334 196 421 237 172 82 322 93 448 34z m-1120 -451 c10 -33 16 -62 14
-64 -2 -2 -70 -25 -150 -52 l-147 -49 41 -127 c22 -71 45 -128 52 -128 6 0 62
17 125 38 181 61 165 61 184 -6 9 -32 16 -61 16 -65 0 -3 -64 -27 -142 -52
-79 -26 -145 -48 -147 -50 -4 -4 89 -287 98 -297 3 -3 82 18 176 48 93 30 174
53 180 50 14 -5 47 -108 37 -117 -15 -13 -597 -198 -604 -191 -14 15 -308 936
-301 943 8 8 520 177 539 178 6 1 19 -26 29 -59z m-3261 -25 l78 -21 164 -395
c90 -217 167 -401 170 -409 9 -21 10 -17 104 340 46 173 85 317 86 318 3 5
217 -49 226 -57 5 -5 -218 -871 -247 -958 -3 -9 -15 -9 -52 2 -26 7 -73 20
-104 29 l-56 16 -168 402 c-92 222 -171 406 -175 411 -3 4 -46 -140 -94 -320
-48 -181 -89 -333 -91 -340 -3 -8 -36 -3 -116 18 -62 16 -114 31 -116 32 -2 3
238 912 252 955 5 13 6 13 139 -23z m2460 -192 c16 -89 17 -103 4 -103 -26 -1
-258 -37 -261 -41 -2 -2 23 -194 56 -427 32 -233 58 -425 56 -427 -7 -6 -249
-39 -253 -34 -3 2 -30 182 -60 399 -31 217 -58 409 -61 426 l-5 30 -136 -18
c-75 -11 -138 -17 -141 -14 -4 4 -22 119 -19 123 3 4 752 111 783 112 27 1 32
-3 37 -26z m-1066 -98 c6 -6 -35 -893 -44 -958 l-6 -38 -126 7 c-70 4 -128 8
-130 9 -1 1 9 218 23 482 14 265 25 489 25 498 0 17 10 18 126 12 69 -3 129
-8 132 -12z m1666 -1372 c8 -29 4 -39 -33 -96 -78 -120 -179 -203 -290 -237
-78 -25 -220 -27 -306 -5 -134 34 -275 129 -275 185 0 23 5 30 28 35 24 5 36
-1 68 -31 46 -43 147 -94 187 -94 80 0 135 63 88 101 -18 14 -28 16 -49 8 -41
-16 -122 5 -122 31 0 4 42 13 93 19 110 15 404 73 502 100 88 24 97 23 109
-16z m-2923 -8 c164 -36 434 -85 474 -85 39 0 39 -19 0 -36 -25 -10 -51 -13
-81 -8 -50 7 -74 -6 -74 -41 0 -39 35 -60 99 -59 64 0 120 25 181 80 32 29 45
35 77 32 55 -4 55 -30 -1 -84 -54 -51 -158 -106 -243 -128 -87 -23 -226 -21
-306 4 -119 37 -221 121 -296 245 -26 43 -31 60 -26 84 4 20 13 31 24 31 10 0
87 -16 172 -35z m1594 -148 l39 -2 -27 -18 c-15 -10 -57 -21 -92 -26 -73 -8
-105 -30 -105 -72 0 -34 41 -69 82 -69 64 0 146 65 199 158 23 40 26 42 72 42
26 0 47 -3 47 -6 0 -24 -76 -140 -127 -194 -149 -159 -350 -194 -535 -93 -64
35 -175 152 -215 228 l-32 60 327 -3 c180 -1 345 -4 367 -5z"/>
<path d="M5775 11344 c-424 -25 -758 -78 -1108 -174 -967 -266 -1870 -858
-2547 -1670 -52 -63 -162 -207 -244 -320 -165 -228 -375 -493 -487 -615 -155
-170 -385 -376 -559 -502 l-86 -61 8 -114 c24 -353 128 -670 285 -869 234
-295 607 -362 973 -173 89 46 245 157 319 227 149 143 340 370 500 595 384
542 708 898 1100 1212 873 700 1891 930 2896 655 376 -103 791 -312 1140 -575
425 -319 780 -696 1165 -1237 180 -253 324 -433 441 -553 158 -161 308 -273
463 -345 146 -68 200 -80 361 -79 125 0 149 3 220 27 251 84 432 292 540 620
54 166 95 406 95 547 l-1 65 -87 62 c-129 91 -259 204 -423 365 -204 201 -297
316 -707 870 -341 461 -826 917 -1322 1240 -682 446 -1420 705 -2226 783 -154
15 -587 27 -709 19z m66 -374 l99 0 0 -205 0 -205 195 0 195 0 0 103 c0 56 3
146 7 200 l6 97 129 0 129 0 -6 -477 c-3 -263 -8 -488 -11 -500 -4 -22 -8 -23
-136 -23 l-131 0 6 229 7 228 -192 5 c-106 3 -195 3 -198 1 -3 -3 -6 -106 -8
-229 l-3 -224 -135 0 -134 0 5 208 c3 114 8 341 11 506 l6 298 30 -6 c17 -3
75 -6 129 -6z m-543 -62 c23 -6 45 -14 47 -19 5 -7 -9 -84 -20 -116 -3 -9 -15
-8 -50 4 -70 23 -195 14 -260 -19 -187 -96 -246 -328 -140 -545 62 -125 176
-203 299 -203 82 0 175 33 230 81 l47 42 44 -49 c24 -27 44 -52 45 -56 1 -15
-124 -98 -178 -118 -131 -50 -319 -64 -435 -34 -92 24 -156 60 -222 128 -168
172 -206 457 -85 646 128 200 438 318 678 258z m2097 -125 c138 -47 254 -89
258 -93 5 -4 -1 -34 -13 -67 l-21 -59 -141 48 c-77 26 -146 48 -152 48 -11 0
-103 -247 -95 -254 2 -1 67 -24 144 -51 77 -26 142 -50 144 -51 4 -4 -39 -124
-45 -124 -2 0 -68 22 -147 49 l-144 49 -52 -150 c-29 -83 -50 -152 -49 -154 3
-2 349 -124 355 -124 1 0 -7 -27 -19 -60 -11 -33 -25 -60 -31 -60 -22 -1 -607
202 -603 209 2 3 73 206 156 451 84 245 157 456 162 469 6 17 13 21 26 16 9
-4 130 -45 267 -92z m-3030 -598 c131 -209 247 -394 257 -411 l19 -32 -91 -57
-91 -57 -417 155 c-229 85 -418 154 -420 152 -2 -2 80 -137 183 -300 102 -164
184 -299 183 -300 -12 -11 -200 -126 -202 -123 -11 14 -519 833 -522 842 -4
12 171 122 189 119 7 -2 192 -70 412 -152 220 -83 401 -148 403 -146 3 2 -75
131 -172 285 -98 155 -179 287 -182 294 -3 9 30 36 92 75 78 48 101 58 110 49
6 -7 119 -184 249 -393z m3930 201 c132 -65 237 -173 260 -266 6 -24 1 -28
-50 -49 -47 -20 -59 -21 -66 -10 -5 8 -9 19 -9 25 0 29 -67 107 -114 134 -71
41 -127 41 -168 0 -45 -45 -37 -87 45 -235 116 -210 133 -300 77 -413 -58
-114 -146 -168 -275 -166 -127 2 -253 62 -361 172 -49 50 -114 155 -114 183 0
8 29 26 64 41 l65 26 15 -45 c9 -25 28 -62 43 -82 94 -124 224 -148 292 -52
38 54 30 90 -66 279 l-88 173 0 77 c1 63 5 86 27 127 55 104 116 137 245 132
75 -3 91 -8 178 -51z m805 -627 c165 -149 300 -274 300 -278 0 -4 -20 -26 -44
-50 l-44 -43 -102 93 c-99 90 -102 92 -119 73 -10 -10 -140 -155 -290 -322
l-272 -302 -27 20 c-15 11 -60 50 -99 87 l-73 68 290 320 c159 176 289 322
289 325 0 3 -45 45 -100 94 -54 49 -99 92 -99 96 0 11 71 90 81 90 6 0 145
-122 309 -271z m-5872 -409 c265 -111 482 -206 482 -209 0 -3 -42 -51 -94
-105 l-93 -100 -54 23 c-30 13 -88 39 -130 57 l-77 32 -116 -123 -117 -124 64
-128 65 -128 -58 -64 -59 -64 -239 479 -239 479 85 92 c46 51 88 91 91 89 3
-2 223 -94 489 -206z m6541 -290 l181 -215 -48 -42 c-26 -23 -50 -41 -54 -40
-3 1 -47 52 -98 112 -51 61 -96 114 -100 119 -5 5 -55 -30 -114 -80 -103 -87
-105 -89 -88 -109 10 -11 56 -64 102 -118 l83 -99 -44 -38 c-24 -22 -49 -39
-56 -40 -7 0 -56 52 -109 115 l-96 115 -91 -77 c-51 -42 -107 -89 -124 -105
l-33 -27 120 -143 c66 -78 120 -145 120 -148 0 -11 -91 -81 -100 -78 -11 4
-410 479 -409 487 1 15 763 641 770 634 4 -4 89 -105 188 -223z m-7221 -426
c207 -174 378 -320 380 -324 3 -7 -155 -200 -164 -200 -2 0 -121 99 -266 220
-144 121 -263 218 -265 216 -2 -2 70 -153 161 -335 91 -182 166 -337 166 -343
-1 -7 -16 -30 -35 -51 l-34 -39 -223 73 c-384 124 -488 157 -488 154 0 -2 116
-101 258 -220 141 -119 258 -222 259 -228 2 -7 -23 -40 -55 -74 l-57 -62 -378
319 c-208 175 -378 322 -377 327 2 16 145 182 157 183 9 0 528 -167 731 -235
9 -3 10 0 3 14 -6 10 -84 172 -175 360 l-165 343 92 109 c51 60 93 109 95 109
2 0 173 -142 380 -316z m7720 -187 c215 -242 245 -292 245 -407 1 -108 -61
-192 -182 -248 -53 -25 -135 -33 -205 -20 -16 3 -29 -26 -92 -216 -40 -120
-75 -220 -77 -223 -2 -2 -53 36 -113 83 -60 48 -110 88 -111 89 -2 1 20 53 48
116 28 63 71 158 95 211 l43 98 -43 47 -43 47 -117 -104 c-65 -58 -132 -117
-149 -132 l-33 -26 -84 95 c-47 53 -84 98 -83 100 3 12 729 662 738 662 6 0
79 -78 163 -172z"/>
<path d="M2792 9251 c2 -5 41 -82 87 -171 l85 -164 83 90 c45 49 83 92 83 95
0 3 -77 40 -171 82 -93 41 -169 72 -167 68z"/>
<path d="M10058 8229 l-125 -114 24 -31 c13 -18 42 -45 65 -60 34 -24 52 -29
98 -29 47 0 63 5 94 29 99 75 102 166 7 274 l-38 44 -125 -113z"/>
<path d="M3930 7208 l0 -143 2073 1 2072 2 3 141 3 141 -2076 0 -2075 0 0
-142z"/>
<path d="M5585 6858 l-76 -157 -114 -3 -114 -3 95 -145 c141 -212 264 -474
264 -560 0 -43 -9 -56 -92 -141 -88 -88 -111 -131 -116 -220 -6 -94 14 -149
94 -269 83 -125 84 -138 24 -271 -83 -186 -123 -238 -174 -225 -48 12 -65 91
-87 401 -6 87 -9 201 -7 252 4 87 6 97 53 185 88 169 135 263 135 274 0 6 -13
14 -29 17 -16 3 -56 31 -90 62 -119 110 -178 246 -247 563 -8 37 -38 26 -73
-28 -38 -59 -53 -61 -133 -26 -80 36 -123 42 -153 22 -16 -11 -47 -63 -85
-144 -95 -199 -115 -211 -260 -163 -98 33 -135 39 -127 19 3 -7 24 -55 46
-106 40 -91 61 -180 76 -329 4 -35 11 -63 16 -63 6 0 48 34 94 75 137 122 226
170 334 182 70 7 125 -9 148 -43 13 -21 14 -29 2 -56 -18 -45 -71 -101 -130
-138 -40 -27 -49 -37 -49 -61 0 -19 6 -32 18 -35 62 -21 120 -57 131 -81 16
-35 28 -273 40 -803 8 -342 13 -416 28 -476 22 -82 51 -131 101 -165 33 -22
46 -24 180 -27 l144 -4 -6 -116 c-4 -64 -16 -191 -27 -282 -22 -195 -24 -290
-5 -352 7 -24 47 -94 89 -154 108 -157 111 -166 103 -337 -7 -161 -2 -181 54
-210 45 -23 116 -18 231 19 262 82 356 199 266 330 -18 27 -54 79 -80 115 -58
83 -116 196 -124 243 -7 45 8 64 85 108 109 62 150 116 138 181 -3 18 -38 78
-77 133 -80 111 -133 202 -160 273 -23 61 -36 151 -21 151 6 0 182 -182 391
-404 210 -223 390 -408 401 -411 65 -21 90 44 66 175 -26 144 -30 272 -11 390
45 284 27 345 -108 359 -68 7 -97 22 -97 50 0 9 9 67 21 128 22 109 22 113 4
133 -39 43 -103 34 -184 -25 -34 -25 -94 -34 -106 -15 -17 27 146 300 180 300
47 0 304 -124 376 -181 l39 -31 0 -644 c0 -625 1 -645 19 -663 37 -37 134 -40
173 -4 17 15 18 51 18 673 l0 656 26 35 c64 85 78 127 79 234 1 89 4 105 25
140 53 85 22 238 -77 382 l-43 63 0 120 0 120 171 0 171 0 -3 273 -4 272 29
42 c18 27 26 49 22 60 -12 32 -140 253 -146 253 -8 0 -150 -249 -150 -264 0
-6 14 -31 30 -56 30 -44 30 -47 30 -182 l0 -138 -85 0 -85 0 0 138 c0 135 0
138 30 182 16 25 30 49 30 54 0 18 -143 267 -151 264 -11 -4 -149 -247 -149
-262 0 -6 14 -31 30 -56 30 -44 30 -47 30 -182 l0 -138 -85 0 -85 0 0 138 c0
135 0 138 30 182 16 25 30 49 30 55 0 9 -125 240 -143 263 -7 9 -29 -22 -84
-117 -40 -72 -73 -136 -73 -142 0 -7 14 -34 30 -61 l30 -48 0 -270 0 -270 165
0 165 0 0 -79 0 -78 -82 -5 c-76 -4 -95 -10 -231 -72 -158 -72 -193 -81 -211
-53 -16 26 1 46 80 94 66 40 114 84 114 104 0 7 -144 126 -227 187 -21 15 -22
20 -12 52 6 19 14 109 19 200 11 226 37 309 139 444 l50 66 -112 0 -113 0 -65
146 c-35 80 -69 147 -74 147 -6 1 -48 -65 -94 -146 l-84 -148 -80 3 -81 3 -71
135 c-39 74 -76 144 -82 155 -10 18 -21 2 -88 -137z m210 -400 c50 -59 57
-120 15 -133 -53 -17 -87 55 -81 168 1 24 29 9 66 -35z m360 -34 c-11 -90 -65
-133 -101 -79 -15 23 -15 27 5 68 12 24 38 56 59 71 44 31 48 25 37 -60z
m-105 -417 c0 -14 -43 -123 -67 -172 l-30 -59 -28 54 c-15 30 -38 83 -51 117
l-24 63 100 0 c55 0 100 -2 100 -3z m767 -632 c67 -28 73 -39 73 -133 l0 -85
-59 6 c-90 10 -167 43 -222 96 -69 67 -64 96 20 122 45 13 150 10 188 -6z"/>
<path d="M1041 6420 c-329 -69 -584 -310 -672 -635 -31 -113 -31 -316 0 -429
98 -365 415 -623 791 -643 411 -22 774 247 881 652 31 116 31 299 0 415 -76
290 -286 515 -569 610 -89 31 -109 33 -242 36 -80 2 -165 -1 -189 -6z m326
-56 c203 -42 283 -126 200 -209 -75 -75 -265 -86 -462 -28 -119 35 -156 53
-184 89 -34 44 -21 103 28 123 96 40 290 52 418 25z m-525 -161 l11 -61 -40
-69 c-58 -98 -93 -168 -122 -247 -15 -38 -31 -71 -37 -73 -22 -7 -68 43 -101
111 -27 56 -32 78 -28 106 8 43 65 128 130 195 54 56 155 119 168 106 4 -4 13
-35 19 -68z m915 -66 c102 -106 149 -195 139 -263 -20 -151 -234 -369 -416
-425 -38 -11 -95 -21 -128 -22 -52 -2 -64 2 -87 23 -26 24 -27 28 -22 100 5
81 73 304 120 395 33 65 58 86 143 118 78 30 127 71 146 123 6 19 15 34 19 34
3 0 42 -37 86 -83z m-687 -61 c41 -13 103 -30 137 -36 36 -7 69 -20 79 -32 21
-22 20 -24 -44 -208 -59 -168 -73 -249 -73 -426 0 -167 17 -293 55 -422 34
-113 32 -116 -68 -109 -109 7 -198 31 -298 80 -80 41 -84 44 -115 107 -47 94
-66 191 -66 345 0 209 41 390 130 572 59 123 88 153 145 153 23 0 77 -11 118
-24z m-502 -338 c24 -28 47 -60 52 -73 5 -13 5 -67 -1 -126 -6 -68 -6 -156 1
-262 6 -88 8 -162 5 -165 -10 -10 -57 43 -95 108 -65 109 -92 206 -98 347 -5
121 7 224 31 268 10 19 12 18 36 -14 14 -18 45 -56 69 -83z m1386 -3 c39 -153
-7 -380 -106 -534 -57 -89 -169 -197 -253 -246 -83 -49 -170 -85 -202 -85 -71
0 -140 160 -159 369 -6 61 -4 71 15 90 15 15 33 21 67 21 60 0 176 27 243 56
118 53 252 172 327 294 40 65 58 74 68 35z"/>
<path d="M10711 6430 c-280 -39 -537 -223 -659 -472 -184 -378 -77 -822 260
-1077 71 -53 205 -116 303 -142 113 -30 307 -30 420 0 308 82 544 319 626 626
27 104 30 297 6 398 -93 381 -413 650 -798 671 -52 2 -123 1 -158 -4z m332
-76 c60 -18 87 -47 87 -93 0 -34 -51 -80 -111 -101 -187 -65 -360 -83 -472
-51 -68 20 -117 68 -117 114 0 42 15 59 82 93 99 50 179 65 333 60 94 -3 159
-10 198 -22z m231 -105 c64 -40 146 -123 190 -192 49 -76 49 -127 1 -212 -37
-68 -50 -81 -79 -87 -16 -2 -25 10 -46 67 -30 79 -72 164 -124 251 -20 32 -36
69 -36 81 0 43 22 123 34 123 7 0 34 -14 60 -31z m-900 -53 c10 -42 58 -88
121 -117 33 -16 65 -29 72 -29 22 0 74 -53 97 -99 33 -64 84 -210 107 -306 39
-165 19 -215 -88 -215 -32 0 -80 6 -108 14 -200 53 -422 272 -442 434 -6 57
20 120 90 210 38 50 124 132 138 132 4 0 10 -11 13 -24z m771 -116 c32 -30
118 -208 149 -308 95 -303 69 -695 -53 -805 -87 -79 -437 -165 -457 -112 -3 7
6 54 20 102 37 127 56 268 56 426 0 170 -22 289 -86 461 -46 126 -52 157 -31
173 6 6 54 20 105 32 51 12 116 31 145 41 63 24 120 20 152 -10z m435 -276
c10 -27 14 -83 15 -184 0 -161 -12 -225 -66 -340 -30 -64 -103 -170 -117 -170
-5 0 -7 477 -2 562 0 4 19 29 43 55 23 27 53 65 67 86 14 20 30 35 35 34 6 -2
17 -21 25 -43z m-1426 -118 c131 -197 324 -314 551 -335 93 -8 102 -23 85
-152 -21 -159 -54 -251 -108 -303 -27 -25 -36 -28 -67 -22 -57 11 -199 89
-274 150 -185 151 -294 396 -278 623 5 71 18 123 31 123 2 0 29 -38 60 -84z"/>
<path d="M8525 2680 c-70 -23 -189 -90 -186 -105 4 -18 356 -625 363 -625 16
0 135 76 174 112 66 61 87 116 82 215 -4 74 -9 93 -51 176 -103 208 -224 280
-382 227z"/>
</g>
</svg>
